<svg version="1.2" xmlns="http://www.w3.org/2000/svg" viewBox="0 0 120 102" width="120" height="102">
	<title>New Project</title>
	<style>
		.s0 { fill: #179100 } 
	</style>
	<path id="Layer" class="s0" d="m119.4 1.9c-6 3-14.6 8.1-24.3 16.7q-1.8 1.7-3.7 3.5c-11.5 11.1-24.1 27-35.6 50-0.6 1.3-1.9 1.9-3.1 1.9-1.4 0-2.8-0.8-3.4-2.3-3.2-9-9.6-22.9-20.5-30.9-1.3-1.1-0.6-3.2 1.1-3.2q0.1 0 0.2 0c5.7 0.5 14.4 3.2 21.8 12.8q0.1 0 0.1 0c0.9 0 14.4-18.9 34.6-34q2-1.6 4.2-3c8.4-5.8 17.9-10.7 28-13.3q0.1 0 0.2 0c1 0 1.4 1.4 0.4 1.8z"/>
	<path id="Layer" class="s0" d="m94.5 24.8q-1.9 1.7-3.9 3.6c3.8 6.6 5.9 14.3 5.9 22.4 0 25.2-20.5 45.7-45.7 45.7-25.2 0-45.7-20.5-45.7-45.7 0-25.2 20.5-45.7 45.7-45.7 11.2 0 21.5 4 29.4 10.7q2.2-1.6 4.3-3c-9.3-8.3-21.2-12.8-33.7-12.8-13.6 0-26.3 5.3-35.9 14.9-9.6 9.6-14.9 22.3-14.9 35.9 0 13.6 5.3 26.3 14.9 35.9 9.6 9.6 22.3 14.9 35.9 14.9 13.6 0 26.3-5.3 35.9-14.9 9.6-9.6 14.9-22.3 14.9-35.9 0-9.3-2.5-18.2-7.1-26z"/>
</svg>